<svg width="32" height="32" viewBox="0 0 32 32" fill="none" xmlns="http://www.w3.org/2000/svg">
<g clip-path="url(#clip0)">
<path d="M15.5479 0.103359L1.21862 7.02098C1.03893 7.10773 0.924805 7.28961 0.924805 7.48911V24.5109C0.924805 24.7104 1.03899 24.8922 1.21862 24.979L15.5479 31.8966C15.8335 32.0345 16.1664 32.0345 16.4519 31.8966L30.7812 24.979C30.9609 24.8922 31.0751 24.7104 31.0751 24.5109V7.48911C31.0751 7.28961 30.9609 7.10773 30.7812 7.02098L16.4519 0.103359C16.1664 -0.0344531 15.8335 -0.0344531 15.5479 0.103359Z" fill="#FFE17D"/>
<path d="M1.01124 7.20459C0.956617 7.28778 0.924805 7.38571 0.924805 7.48915V24.5109C0.924805 24.7104 1.03899 24.8923 1.21862 24.979L15.5479 31.8966C15.6907 31.9655 15.8453 32 15.9999 32V14.4405L1.01124 7.20459Z" fill="#FFC350"/>
<path d="M30.9887 7.20459C31.0433 7.28778 31.0751 7.38571 31.0751 7.48915V24.5109C31.0751 24.7104 30.9609 24.8923 30.7813 24.979L16.452 31.8966C16.3092 31.9655 16.1546 32 16 32V14.4405L30.9887 7.20459Z" fill="#FFD164"/>
<path d="M5.21291 23.6036C5.13729 23.6036 5.0601 23.5868 4.98754 23.5518L2.77523 22.4838C2.51635 22.3589 2.40823 22.0482 2.5331 21.7898C2.65748 21.5315 2.96916 21.4238 3.22704 21.5477L5.43935 22.6158C5.69823 22.7407 5.80635 23.0514 5.68148 23.3098C5.59216 23.4955 5.40635 23.6036 5.21291 23.6036Z" fill="#FFE17D"/>
<path d="M7.24919 22.2781C7.17357 22.2781 7.09638 22.2613 7.02382 22.2263L2.77832 20.1769C2.51994 20.0521 2.41132 19.7414 2.53619 19.483C2.66057 19.2251 2.97275 19.117 3.23013 19.2409L7.47557 21.2902C7.73394 21.4151 7.84257 21.7258 7.71769 21.9842C7.62844 22.1699 7.44263 22.2781 7.24919 22.2781Z" fill="#FFF6D8"/>
<path d="M25.9092 9.64827L10.8678 2.38184L6.90283 4.30371L21.978 11.5814L25.9092 9.64827Z" fill="#FF8087"/>
<path d="M21.978 11.5814V17.2193C21.978 17.4109 22.1783 17.5367 22.351 17.4534L25.6155 15.8774C25.7952 15.7907 25.9093 15.6088 25.9093 15.4093V9.64832L21.978 11.5814Z" fill="#E6646E"/>
</g>
<defs>
<clipPath id="clip0">
<rect width="32" height="32" fill="white"/>
</clipPath>
</defs>
</svg>
