<svg width="38" height="28" viewBox="0 0 38 28" fill="none" xmlns="http://www.w3.org/2000/svg">
<g clip-path="url(#clip0)">
<path d="M31.8207 6.83044H24.1121V20.8021H36.7421V14.5135L35.2691 9.42256C34.8251 7.88736 33.419 6.83044 31.8207 6.83044Z" fill="#FF7058"/>
<path d="M34.8983 14.449L33.5855 9.9111C33.3592 9.13104 32.6336 8.58508 31.8209 8.58508H25.8667V14.449H34.8983Z" fill="#84DBFF"/>
<path d="M34.9 14.4466H25.8638V8.58264L34.9 14.4466Z" fill="#CDD6E0"/>
<path d="M34.8983 14.449L33.5855 9.9111C33.3592 9.13104 32.6336 8.58508 31.8209 8.58508H25.8667L34.8983 14.449Z" fill="#F2F2F2"/>
<path d="M2.33314 -0.183716H21.779C23.0669 -0.183716 24.1122 0.860728 24.1122 2.14942V20.8013H0V2.14942C0 0.860801 1.04444 -0.183716 2.33314 -0.183716Z" fill="#FFD15C"/>
<path d="M15.8031 -0.179932V5.98495L14.9009 5.08282L13.9553 6.02855L13.0104 5.08282L12.0655 6.02855L11.1189 5.08282L10.1616 6.02855L9.21743 5.08282L8.30444 5.99588V-0.179932H15.8031Z" fill="#F2F2F2"/>
<path d="M37.3319 20.8004V23.4369H0.00170898V20.8004H3.89805C4.80797 19.1672 6.55783 18.0629 8.56432 18.0629C10.563 18.0629 12.3129 19.1672 13.2306 20.8004H25.7673C26.6773 19.1672 28.4186 18.0629 30.4251 18.0629C32.4316 18.0629 34.1736 19.1672 35.0914 20.8004H37.3319Z" fill="#334A5E"/>
<path d="M34.1527 23.4206C34.1527 25.4784 32.4845 27.1466 30.4266 27.1466C28.3688 27.1466 26.7021 25.4784 26.7021 23.4206C26.7021 21.3628 28.3695 19.6946 30.4266 19.6946C32.4853 19.6946 34.1527 21.3628 34.1527 23.4206Z" fill="#40596B"/>
<path d="M31.9239 23.4205C31.9239 24.2473 31.2535 24.9169 30.4276 24.9169C29.6008 24.9169 28.9297 24.2473 28.9297 23.4205C28.9297 22.5938 29.6001 21.9242 30.4276 21.9242C31.2535 21.9235 31.9239 22.5939 31.9239 23.4205Z" fill="#ACB3BA"/>
<path d="M12.2885 23.4206C12.2885 25.4784 10.6195 27.1466 8.56245 27.1466C6.50462 27.1466 4.83643 25.4784 4.83643 23.4206C4.83643 21.3628 6.50462 19.6946 8.56245 19.6946C10.6195 19.6946 12.2885 21.3628 12.2885 23.4206Z" fill="#40596B"/>
<path d="M10.0591 23.4205C10.0591 24.2473 9.38948 24.9169 8.56275 24.9169C7.73601 24.9169 7.06567 24.2473 7.06567 23.4205C7.06567 22.5938 7.73609 21.9242 8.56275 21.9242C9.3894 21.9242 10.0591 22.5939 10.0591 23.4205Z" fill="#ACB3BA"/>
</g>
<defs>
<clipPath id="clip0">
<rect width="37.3333" height="28" fill="white"/>
</clipPath>
</defs>
</svg>
